<svg width="520" height="540" viewBox="240 225 520 540" fill="none" xmlns="http://www.w3.org/2000/svg">
<g clip-path="url(#clip0_917_7485)">
<path d="M638.452 716.426C630.453 721.703 622.26 726.365 613.737 730.748C608.475 733.459 603.339 736.333 598.253 739.357C594.817 735.101 592.415 731.12 590.302 726.074C587.397 719.282 583.745 713.115 579.809 706.864C576.97 702.285 574.583 697.68 572.378 692.765C569.119 685.585 565.265 678.903 561.208 672.146C551.32 655.644 542.238 638.758 533.332 621.716C528.463 612.42 523.546 603.303 517.754 594.535C517.635 604.781 517.561 615.018 517.756 625.268C517.888 632.627 517.888 639.983 517.869 647.341C517.859 651.698 517.857 656.049 517.985 660.406C518.018 661.626 518.051 662.847 518.084 664.104C518.143 665.639 518.143 665.639 518.203 667.204C517.965 669.681 517.965 669.681 517.11 671.602C514.241 673.615 511.159 673.201 507.77 673.088C507.017 673.075 506.264 673.063 505.487 673.05C503.862 673.02 502.236 672.982 500.61 672.938C497.954 672.867 495.299 672.816 492.643 672.769C485.588 672.636 478.542 672.493 471.493 672.07C470.862 668.86 470.622 665.834 470.605 662.573C470.598 661.615 470.591 660.656 470.583 659.669C470.58 658.676 470.576 657.683 470.572 656.66C470.56 654.7 470.547 652.74 470.535 650.78C470.532 649.838 470.529 648.896 470.525 647.925C470.509 646.14 470.471 644.355 470.409 642.57C470.34 640.545 470.345 638.518 470.367 636.494C470.901 636.106 471.435 635.718 471.985 635.318C471.724 634.835 471.462 634.352 471.192 633.855C470.1 630.504 470.325 627.33 470.467 623.871C470.513 622.396 470.558 620.92 470.602 619.445C470.626 618.694 470.65 617.942 470.675 617.169C470.777 613.54 470.8 609.911 470.82 606.281C470.83 604.534 470.83 604.534 470.841 602.752C470.847 601.758 470.853 600.765 470.859 599.742C470.429 600.582 469.999 601.423 469.556 602.289C462.059 616.95 454.561 631.611 447.063 646.272C446.761 646.863 446.459 647.454 446.147 648.063C445.242 649.833 444.337 651.603 443.432 653.372C442.258 655.668 441.085 657.963 439.911 660.258C437.478 665.017 435.044 669.777 432.605 674.533C429.799 680.007 426.996 685.48 424.279 691C423.724 692.119 423.724 692.119 423.157 693.261C422.423 694.743 421.697 696.228 420.977 697.717C419.054 701.563 417.608 704.389 413.709 706.523C412.594 705.832 411.48 705.14 410.332 704.427C406.349 702.085 402.277 700.16 398.063 698.281C392.629 695.85 387.358 693.214 382.152 690.31C381.528 689.966 380.904 689.622 380.261 689.267C377.521 687.714 375.749 686.601 373.869 684.014C406.7 619.816 406.7 619.816 407.919 617.433C408.708 615.889 409.498 614.345 410.287 612.802C412.171 609.118 414.054 605.436 415.939 601.753C419.153 595.472 422.365 589.19 425.555 582.896C427.116 579.815 428.683 576.736 430.249 573.658C431.075 572.032 431.9 570.406 432.723 568.779C433.931 566.393 435.145 564.01 436.359 561.627C436.727 560.897 437.095 560.167 437.474 559.415C440.066 554.345 440.066 554.345 441.869 553.035C441.475 552.493 441.081 551.951 440.675 551.392C440.135 551.742 439.595 552.093 439.038 552.453C430.631 557.729 421.761 561.936 412.82 566.218C409.553 567.791 406.288 569.368 403.023 570.944C402.226 571.328 401.429 571.712 400.608 572.108C393.235 575.663 385.904 579.299 378.6 582.993C375.07 584.764 371.558 586.437 367.876 587.876C365.166 588.949 362.836 590.023 360.373 591.538C356.892 593.585 353.469 594.955 349.628 596.207C346.692 592.477 345.234 589.708 344.085 585.175C343.323 583.472 342.512 581.792 341.658 580.133C341.179 579.194 340.7 578.254 340.207 577.285C339.707 576.316 339.206 575.347 338.691 574.348C335.338 567.816 332.114 561.299 329.245 554.542C336.249 549.296 336.249 549.296 338.741 548.898C340.457 548.073 342.154 547.209 343.84 546.326C345.368 545.532 345.368 545.532 346.926 544.723C349.066 543.604 351.204 542.485 353.342 541.365C354.367 540.833 355.392 540.302 356.447 539.754C357.379 539.267 358.31 538.779 359.269 538.277C362.163 536.901 362.163 536.901 365.48 535.714C369.321 534.319 372.878 532.625 376.517 530.786C377.558 530.266 377.558 530.266 378.62 529.735C380.822 528.635 383.021 527.529 385.22 526.423C388.114 524.972 391.009 523.522 393.905 522.075C394.593 521.731 395.28 521.386 395.989 521.032C400.946 518.562 405.945 516.211 411.008 513.962C410.614 513.42 410.221 512.878 409.815 512.319C409.173 512.445 408.532 512.572 407.871 512.701C405.415 513.024 403.494 512.926 401.042 512.58C400.215 512.466 399.388 512.353 398.535 512.236C397.659 512.11 396.783 511.984 395.88 511.854C394.039 511.601 392.198 511.349 390.357 511.097C388.981 510.907 388.981 510.907 387.577 510.712C383.681 510.179 379.782 509.686 375.88 509.208C374.629 509.052 373.378 508.896 372.09 508.736C368.786 508.38 365.505 508.185 362.19 508.016C359.02 507.534 355.869 506.981 352.717 506.388C346.157 505.21 339.701 504.627 333.057 504.303C329.518 504.043 326.112 503.514 322.615 502.884C315.875 501.709 309.191 500.639 302.383 500.038C297.6 499.564 292.836 498.931 288.068 498.304C283.312 497.69 278.578 497.254 273.797 496.938C273.125 493.754 273.033 491.13 273.441 487.922C273.546 487.063 273.651 486.205 273.759 485.32C273.875 484.42 273.992 483.519 274.111 482.591C274.34 480.733 274.567 478.875 274.793 477.017C274.902 476.132 275.01 475.247 275.121 474.335C275.448 471.533 275.695 468.731 275.902 465.916C276.266 461.023 276.98 456.21 277.777 451.377C283.043 449.435 287.933 450.524 293.362 451.349C295.192 451.616 297.023 451.881 298.854 452.143C299.66 452.264 300.466 452.386 301.297 452.511C303.737 452.845 303.737 452.845 307.126 452.643C307.52 453.185 307.914 453.727 308.32 454.286C308.949 454.158 309.579 454.03 310.228 453.898C312.879 453.561 315.007 453.736 317.658 454.12C318.605 454.253 319.552 454.386 320.527 454.523C321.532 454.671 322.537 454.818 323.572 454.97C325.677 455.267 327.782 455.563 329.886 455.858C330.929 456.006 331.971 456.154 333.045 456.307C337.253 456.896 341.466 457.441 345.681 457.967C346.401 458.057 347.121 458.148 347.863 458.241C351.724 458.718 355.584 459.136 359.457 459.489C363.967 459.903 368.391 460.646 372.858 461.42C376.303 461.967 379.742 462.288 383.211 462.604C393.798 463.652 404.353 465.169 414.902 466.581C421.818 467.506 428.735 468.425 435.656 469.308C436.36 469.399 437.065 469.491 437.791 469.585C440.928 469.981 444.004 470.272 447.162 470.385C448.086 470.456 449.009 470.528 449.961 470.602C450.355 471.144 450.749 471.686 451.154 472.244C451.688 471.856 452.222 471.468 452.772 471.069C452.238 470.276 451.703 469.482 451.153 468.665C443.828 457.618 437.634 446.035 431.42 434.343C429.765 431.243 428.107 428.145 426.448 425.046C425.358 423.008 424.267 420.97 423.178 418.931C419.001 411.121 414.752 403.354 410.461 395.606C404.882 385.52 399.544 375.326 394.259 365.086C390.14 357.113 385.898 349.26 381.259 341.574C376.811 334.148 372.828 326.479 368.835 318.804C365.645 312.712 362.235 306.85 358.581 301.024C356.472 297.544 354.702 293.97 353.015 290.275C352.707 289.615 352.398 288.955 352.081 288.274C351.344 286.694 350.615 285.111 349.888 283.526C358.507 278.002 367.418 273.269 376.538 268.635C377.917 267.93 379.297 267.224 380.676 266.518C384.009 264.813 387.346 263.113 390.684 261.416C396.681 270.529 401.93 279.895 406.981 289.554C409.167 293.732 411.371 297.9 413.575 302.068C414.025 302.92 414.476 303.771 414.939 304.648C421.52 317.072 428.342 329.365 435.147 341.667C438.054 346.926 440.922 352.206 443.784 357.489C445.666 360.941 447.574 364.377 449.487 367.811C453.438 374.919 457.263 382.089 461.049 389.284C462.148 391.37 463.251 393.453 464.355 395.536C465.058 396.87 465.761 398.204 466.464 399.539C466.793 400.157 467.121 400.776 467.459 401.414C469.732 405.75 469.732 405.75 470.161 408.236C471.314 402.091 471.328 396.124 471.261 389.866C471.249 387.724 471.237 385.582 471.227 383.44C471.222 382.398 471.217 381.355 471.212 380.282C471.209 376.437 471.285 372.602 471.378 368.761C471.588 359.845 471.549 350.932 471.489 342.012C471.481 340.598 471.472 339.184 471.464 337.77C471.444 334.605 471.421 331.439 471.397 328.274C476.513 326.565 481.446 326.975 486.776 327.218C488.702 327.294 490.628 327.368 492.554 327.442C493.5 327.481 494.447 327.519 495.422 327.559C499.216 327.705 503.009 327.799 506.804 327.884C507.968 327.91 509.131 327.937 510.33 327.964C512.503 327.993 514.676 327.954 516.847 327.882C519.403 332.159 519.156 335.996 518.869 340.767C518.794 342.39 518.724 344.014 518.656 345.638C518.621 346.459 518.587 347.28 518.551 348.127C518.44 351.754 518.51 355.373 518.599 359.003C518.789 367.486 518.646 375.947 518.469 384.423C518.363 389.489 518.318 394.555 518.29 399.623C525.004 389.122 530.49 377.845 535.859 366.597C538.775 360.533 541.888 354.601 545.099 348.692C548.904 341.685 552.51 334.619 555.935 327.413C560.995 316.776 566.429 306.342 571.997 295.97C572.572 294.893 572.572 294.893 573.158 293.793C575.887 288.752 575.887 288.752 577.695 287.438C579.151 288.205 579.151 288.205 580.636 288.988C581.598 289.494 581.598 289.494 582.578 290.01C584.012 290.766 585.445 291.521 586.878 292.277C590.597 294.238 594.318 296.194 598.044 298.141C598.74 298.505 599.435 298.869 600.152 299.244C601.465 299.932 602.78 300.618 604.095 301.302C607.539 303.107 610.922 304.993 614.276 306.967C615.041 307.416 615.806 307.866 616.594 308.329C617.46 308.839 617.46 308.839 618.344 309.36C611.765 323.066 604.968 336.644 598.033 350.167C597.012 352.161 595.992 354.154 594.972 356.148C592.314 361.341 589.654 366.533 586.994 371.724C584.301 376.979 581.611 382.235 578.92 387.491C574.966 395.216 571.01 402.94 567.053 410.664C562.629 419.3 558.209 427.938 553.792 436.578C552.771 438.575 551.75 440.572 550.729 442.569C550.328 443.352 549.928 444.134 549.516 444.94C549.242 445.476 548.968 446.011 548.686 446.563C554.637 444.598 560.085 441.921 565.662 439.092C573.531 435.142 581.442 431.313 589.436 427.618C596.559 424.316 603.608 420.87 610.636 417.373C614.157 415.637 617.581 414.027 621.284 412.701C625.124 411.307 628.53 409.478 632.072 407.472C633.037 406.933 633.037 406.933 634.021 406.384C635.587 405.509 637.15 404.628 638.712 403.745C642.82 410.705 646.416 417.878 649.993 425.12C650.578 426.295 651.164 427.471 651.767 428.682C654.629 434.463 657.376 440.213 659.692 446.232C655.032 449.868 650.544 452.298 645.072 454.5C638.045 457.426 631.282 460.658 624.559 464.227C622.412 465.349 620.262 466.466 618.111 467.579C616.677 468.327 616.677 468.327 615.215 469.09C612.849 470.225 612.849 470.225 610.634 470.58C609.089 471.352 607.561 472.157 606.04 472.976C596.43 477.982 586.441 482.215 576.523 486.578C576.917 487.12 577.31 487.662 577.716 488.221C578.795 487.864 578.795 487.864 579.896 487.5C582.88 486.939 584.921 487.186 587.883 487.725C592.022 488.449 596.192 488.951 600.354 489.5C601.326 489.629 602.298 489.758 603.299 489.891C610.129 490.792 616.965 491.631 623.804 492.449C629.203 493.109 634.59 493.858 639.979 494.595C647.216 495.584 654.45 496.522 661.71 497.304C665.494 497.719 669.273 498.181 673.052 498.647C679.365 499.424 685.681 500.152 692.003 500.845C693.827 501.057 695.648 501.318 697.461 501.62C699.237 504.606 699.084 506.691 698.451 510C697.867 513.379 697.4 516.695 697.152 520.121C696.687 526.346 695.94 532.532 695.193 538.724C695.098 539.526 695.004 540.328 694.907 541.155C694.82 541.877 694.733 542.599 694.643 543.343C694.422 545.255 694.422 545.255 694.887 547.415C691.093 549.585 687.933 548.618 683.749 547.821C679.366 547.022 675.016 546.238 670.58 545.858C665.382 545.408 660.221 544.732 655.047 544.044C648.865 543.222 642.682 542.42 636.49 541.682C628.739 540.753 621.004 539.702 613.27 538.623C607.794 537.869 602.327 537.244 596.828 536.726C592.593 536.3 588.377 535.724 584.157 535.152C577.278 534.236 570.4 533.374 563.503 532.623C559.859 532.221 556.219 531.785 552.578 531.349C547.11 530.702 541.649 530.147 536.164 529.705C536.824 530.554 537.484 531.403 538.164 532.277C541.678 537.126 544.357 542.404 547.145 547.689C548.076 549.438 549.008 551.186 549.94 552.935C550.6 554.172 551.259 555.41 551.917 556.648C555.452 563.292 559.03 569.912 562.613 576.53C563.751 578.63 564.887 580.731 566.024 582.832C569.961 590.107 573.913 597.375 577.884 604.631C578.282 605.359 578.68 606.086 579.09 606.835C579.486 607.56 579.883 608.285 580.291 609.032C581.089 610.489 581.886 611.947 582.684 613.405C583.08 614.128 583.476 614.852 583.884 615.597C589.109 625.152 594.224 634.754 599.233 644.423C605.949 657.275 613.081 669.907 620.159 682.563C620.919 683.926 620.919 683.926 621.694 685.316C622.645 687.021 623.598 688.725 624.555 690.427C627.173 695.129 629.557 699.878 631.762 704.786C632.957 707.367 634.353 709.781 635.846 712.201C636.341 713.01 636.835 713.818 637.345 714.651C637.893 715.53 637.893 715.53 638.452 716.426Z" fill="#060606"/>
<path d="M696 474.148C698 476.179 698 476.179 698 479.224C696.68 479.56 695.36 479.895 694 480.24C694 477.194 694 477.194 696 474.148Z" fill="#2B2B2B"/>
</g>
<defs>
<clipPath id="clip0_917_7485">
<rect width="995" height="995" fill="white"/>
</clipPath>
</defs>
</svg>
